<?xml version="1.0" encoding="utf-8"?>
<!-- Generator: Adobe Illustrator 23.0.4, SVG Export Plug-In . SVG Version: 6.00 Build 0)  -->
<svg version="1.1" id="レイヤー_1" xmlns="http://www.w3.org/2000/svg" xmlns:xlink="http://www.w3.org/1999/xlink" x="0px"
	 y="0px" viewBox="0 0 128.8 128.8" style="enable-background:new 0 0 128.8 128.8;" xml:space="preserve">
<style type="text/css">
	.st0{fill:#FFFFFF;}
	.st1{fill:#AF0017;}
</style>
<title>アセット 1</title>
<g id="レイヤー_1-2">
	<rect class="st0" width="128.8" height="128.8"/>
	<path class="st1" d="M103.3,51.3h-0.8v-4l-28.9,9.9v0.1L90,63l12.6-4.3v-3h0.8v16.4h-0.8v-5.1l-29,9.9v0.1l28.9,10.1v-4.7h0.8v10.1
		h-0.8v-4.4L62.8,74.1v-1.6l25.9-9v-0.1l-25.9-9.2v-1.6L102.5,39v-4.5h0.8L103.3,51.3z"/>
	<path class="st1" d="M68,83.4c0-0.1,0-0.3,0-0.4c0-0.1-0.1-0.2-0.2-0.3c-0.1-0.1-0.2-0.2-0.3-0.2c-0.2-0.1-0.3-0.1-0.5-0.2v-0.1
		h1.1V86H67v-0.1c0.2-0.1,0.3-0.1,0.5-0.2c0.1-0.1,0.2-0.1,0.3-0.2c0.1-0.1,0.1-0.2,0.2-0.3c0-0.1,0-0.3,0-0.4v-0.2h-4.1v0.6h-0.1
		v-2h0.1v0.6H68V83.4z"/>
	<path class="st1" d="M68.1,87.7l-3,1l0,0l3,1.1v1.5H68v-0.6h-4.2v0.6h-0.1v-2h0.1v0.6H68l-4.2-1.5v-0.1l4.2-1.4h-4.2v0.6h-0.1v-1.2
		h0.1v0.6H68v-0.6h0.1L68.1,87.7z"/>
	<path class="st1" d="M60.1,36h0.7v4.3c0,1.6,0,3.2,0.1,4.7s0.1,3.2,0.1,4.7c0,1.5-0.1,2.9-0.3,4.4c-0.2,1.6-0.5,3.1-1,4.6
		c-0.5,1.5-1.1,3-1.9,4.3c-0.8,1.4-1.9,2.6-3.1,3.6c-1.3,1.1-2.8,1.9-4.4,2.5c-1.9,0.7-4,1-6,0.9c-2,0-4-0.3-5.9-0.9
		c-1.6-0.6-3.1-1.4-4.4-2.5c-1.2-1-2.2-2.2-3.1-3.5c-0.8-1.3-1.4-2.7-1.9-4.1c-0.5-1.4-0.8-2.8-1-4.3c-0.2-1.3-0.3-2.6-0.3-3.9
		c0-1.8,0-3.5,0-5.3s0-3.5,0-5.3V36h0.6v4.3h31.8V36z M28.2,49.5c0,1.7,0.2,3.5,0.8,5.2c0.4,1.3,1.1,2.5,2,3.6
		c0.8,0.9,1.7,1.7,2.8,2.3c1,0.6,2.1,1,3.2,1.3c1.1,0.3,2.3,0.5,3.5,0.6c1.2,0.1,2.3,0.1,3.3,0.1c2.3,0,4.5-0.1,6.8-0.5
		c1.8-0.2,3.6-0.9,5.2-1.8c1.5-0.9,2.6-2.3,3.3-3.8c0.8-2.1,1.2-4.3,1.2-6.5c0-0.6,0-1.2,0-1.7c0-0.4,0-0.8-0.1-1.2H28.4
		C28.3,47.9,28.2,48.7,28.2,49.5z"/>
	<path class="st1" d="M32.6,86.3c0.1,0.6,0.2,1.2,0.5,1.7c0.3,0.6,0.8,1.2,1.4,1.6c0.8,0.5,1.7,0.8,2.7,0.8v0.7h-9.5V67.8h0.6
		l0.2,0.3c2.6,3,4.8,5.4,6.6,7.4c1.6,1.8,3.4,3.4,5.3,4.8c1.6,1.2,3.4,2,5.2,2.6c2.2,0.6,4.4,0.8,6.6,0.8c1.3,0,2.4-0.1,3.5-0.2
		c0.9-0.1,1.8-0.3,2.7-0.6c0.7-0.3,1.3-0.7,1.8-1.4c0.5-0.7,0.7-1.5,0.6-2.4c0-0.5,0-1-0.1-1.5c-0.1-0.5-0.3-0.9-0.5-1.4
		c-0.3-0.4-0.7-0.8-1.1-1c-0.6-0.3-1.2-0.4-1.9-0.3h-0.5L56,75.1l-0.8,0.1l-0.5,0.1c-0.7,0.1-1.3-0.3-1.6-0.9
		c-0.3-0.6-0.4-1.3-0.4-2c0-0.2,0-0.5,0-0.9c0-0.3,0.1-0.7,0.2-1c0.1-0.3,0.4-0.6,0.7-0.8c0.4-0.3,0.9-0.4,1.4-0.4
		c0.7,0,1.3,0.2,1.9,0.6c0.8,0.5,1.6,1.1,2.2,1.8c0.8,1,1.4,2.1,1.7,3.3c0.5,1.6,0.8,3.2,0.7,4.9c0,1.7-0.2,3.3-0.8,4.9
		c-0.4,1.2-1.1,2.4-2,3.3C58,88.9,57,89.6,55.9,90c-1.1,0.4-2.2,0.6-3.3,0.6c-0.6,0-1.2-0.1-1.8-0.2c-0.8-0.2-1.5-0.5-2.3-0.8
		c-0.9-0.5-1.8-1-2.7-1.6c-1.1-0.8-2.1-1.7-3-2.7l-3.4-3.7l-6.8-7.6v11.2C32.6,85.4,32.6,85.8,32.6,86.3z"/>
</g>
</svg>
