<svg xmlns="http://www.w3.org/2000/svg" viewBox="0 0 128.79 128.79"><defs><style>.cls-1{fill:#a61f24;}.cls-2{fill:#fff;}</style></defs><title>アセット 1</title><g id="レイヤー_2" data-name="レイヤー 2"><g id="レイヤー_1-2" data-name="レイヤー 1"><rect class="cls-1" width="128.79" height="128.79"/><path class="cls-2" d="M103.27,51.28h-.76v-4L73.64,57.14v.11L90,63l12.55-4.25v-3h.76V72.14h-.76V67.06L73.58,77v.11l28.93,10.14V82.51h.76V92.58h-.76V88.15L62.79,74.07V72.48l25.91-9v-.11l-25.91-9.2V52.58L102.51,39V34.5h.76Z"/><path class="cls-2" d="M68,83.44a1.34,1.34,0,0,0,0-.4.92.92,0,0,0-.16-.31,1.07,1.07,0,0,0-.31-.25,3.07,3.07,0,0,0-.5-.2v-.07h1.1V86H67V85.9a3.07,3.07,0,0,0,.5-.2.84.84,0,0,0,.31-.25.92.92,0,0,0,.16-.31,1.34,1.34,0,0,0,0-.4v-.21H63.85v.55h-.09v-2h.09v.56H68Z"/><path class="cls-2" d="M68.05,87.66l-3,1h0l3,1.06v1.51H68v-.47H63.85v.56h-.09v-2h.09v.55H68l-4.2-1.48v-.1L68,86.81H63.85v.56h-.09v-1.2h.09v.55H68v-.55h.09Z"/><path class="cls-2" d="M60.13,36h.65v4.27c0,1.57,0,3.15.07,4.73s.07,3.16.07,4.73a38.25,38.25,0,0,1-.28,4.41,25.85,25.85,0,0,1-1,4.6,21.31,21.31,0,0,1-1.92,4.31,14.2,14.2,0,0,1-3.07,3.62,14,14,0,0,1-4.41,2.51,19.71,19.71,0,0,1-11.92,0,14.68,14.68,0,0,1-4.41-2.49,13.88,13.88,0,0,1-3.06-3.55A20.06,20.06,0,0,1,28.92,59a23.23,23.23,0,0,1-1-4.27,32.13,32.13,0,0,1-.27-3.92V45.54c0-1.75.05-3.5.05-5.26V36h.65v4.27H60.09ZM28.25,49.46A16.1,16.1,0,0,0,29,54.62a10.85,10.85,0,0,0,2,3.59,9.78,9.78,0,0,0,2.8,2.32,14.14,14.14,0,0,0,3.32,1.3,21.61,21.61,0,0,0,3.48.58c1.16.09,2.25.14,3.27.14a45.53,45.53,0,0,0,6.8-.46,13.29,13.29,0,0,0,5.2-1.84,8.87,8.87,0,0,0,3.32-3.85,15.48,15.48,0,0,0,1.16-6.52V48.21a7,7,0,0,0-.11-1.2H28.39C28.3,47.9,28.25,48.76,28.25,49.46Z"/><path class="cls-2" d="M32.63,86.32A5,5,0,0,0,33.14,88a4.5,4.5,0,0,0,1.39,1.58,5.14,5.14,0,0,0,2.72.8v.71H27.74V67.76h.65l.23.31q3.86,4.46,6.61,7.45a35.19,35.19,0,0,0,5.27,4.79,16.81,16.81,0,0,0,5.24,2.56,24.81,24.81,0,0,0,6.59.77,33.26,33.26,0,0,0,3.46-.16,9.55,9.55,0,0,0,2.69-.61,3.81,3.81,0,0,0,1.76-1.36,4.08,4.08,0,0,0,.63-2.38,7.94,7.94,0,0,0-.14-1.46,3.85,3.85,0,0,0-.53-1.35,3.1,3.1,0,0,0-1.1-1,3.81,3.81,0,0,0-1.85-.39l-.51,0-.79.11-.79.1-.51,0a1.64,1.64,0,0,1-1.6-.87,4.41,4.41,0,0,1-.44-2.05v-.89a3.88,3.88,0,0,1,.26-1,2,2,0,0,1,.7-.84,2.3,2.3,0,0,1,1.37-.36,4.19,4.19,0,0,1,1.92.59A6.83,6.83,0,0,1,59,71.66a11.13,11.13,0,0,1,1.74,3.28,14.76,14.76,0,0,1,.72,4.89,13.91,13.91,0,0,1-.77,4.91,9.57,9.57,0,0,1-2,3.36A7.45,7.45,0,0,1,55.84,90a9.75,9.75,0,0,1-3.34.59,8.1,8.1,0,0,1-1.77-.23,10.81,10.81,0,0,1-2.27-.82,16.38,16.38,0,0,1-2.69-1.64,21.63,21.63,0,0,1-3-2.74l-3.43-3.68-6.78-7.58V85.15C32.56,85.38,32.59,85.76,32.63,86.32Z"/></g></g></svg>