<svg xmlns="http://www.w3.org/2000/svg" viewBox="0 0 128.79 128.79"><defs><style>.cls-1{fill:#fff;}.cls-2{fill:#a61f24;}</style></defs><title>アセット 2</title><g id="レイヤー_2" data-name="レイヤー 2"><g id="レイヤー_1-2" data-name="レイヤー 1"><rect class="cls-1" width="128.79" height="128.79" transform="translate(128.79 0) rotate(90)"/><path class="cls-2" d="M103.27,51.28h-.76v-4L73.64,57.14v.11L90,63l12.55-4.27v-3h.76V72.15h-.76V67.06L73.58,77v.11l28.93,10.13V82.5h.76V92.58h-.76V88.15L62.79,74.07V72.48l25.91-9v-.11L62.79,54.18V52.6L102.51,39V34.52h.76Z"/><path class="cls-2" d="M68,83.44a1.64,1.64,0,0,0,0-.4.83.83,0,0,0-.16-.31,1,1,0,0,0-.31-.25,2.73,2.73,0,0,0-.5-.2V82.2h1.1V86H67V85.9a2.73,2.73,0,0,0,.5-.2,1,1,0,0,0,.31-.25.83.83,0,0,0,.16-.31,1.64,1.64,0,0,0,0-.4v-.21H63.85v.55h-.09v-2h.09v.55H68Z"/><path class="cls-2" d="M68.05,87.66l-3,1h0l3,1.06v1.5H68v-.55H63.85v.55h-.09v-2h.09v.55H68l-4.2-1.48v-.1L68,86.77H63.85v.56h-.09V86.11h.09v.56H68v-.56h.09Z"/><path class="cls-2" d="M60.13,36h.65v4.27c0,1.57,0,3.15.07,4.73s.07,3.15.07,4.73a36.27,36.27,0,0,1-.28,4.41,24.44,24.44,0,0,1-1,4.59,20.91,20.91,0,0,1-1.92,4.32,14.31,14.31,0,0,1-3.07,3.62,14,14,0,0,1-4.4,2.5,17.53,17.53,0,0,1-6,.93,17.31,17.31,0,0,1-5.94-.93,14.32,14.32,0,0,1-4.41-2.48,14.11,14.11,0,0,1-3.06-3.55A20.27,20.27,0,0,1,28.92,59a22.48,22.48,0,0,1-1-4.27,29.36,29.36,0,0,1-.28-3.92c0-1.76,0-3.52,0-5.27s0-3.5,0-5.26V36h.65v4.27H60.13ZM28.25,49.46A16.2,16.2,0,0,0,29,54.61a10.86,10.86,0,0,0,2,3.6,9.68,9.68,0,0,0,2.81,2.32A14.07,14.07,0,0,0,37,61.83a21.07,21.07,0,0,0,3.48.58c1.16.09,2.26.14,3.28.14a45,45,0,0,0,6.79-.47,13.25,13.25,0,0,0,5.2-1.83,8.94,8.94,0,0,0,3.32-3.85,15.6,15.6,0,0,0,1.16-6.52c0-.62,0-1.18,0-1.67A8.32,8.32,0,0,0,60.13,47H28.39C28.3,47.9,28.25,48.72,28.25,49.46Z"/><path class="cls-2" d="M32.63,86.32A5,5,0,0,0,33.14,88a4.36,4.36,0,0,0,1.4,1.59,5,5,0,0,0,2.71.79v.72H27.74V67.78h.65l.23.31q3.86,4.45,6.61,7.45a35.31,35.31,0,0,0,5.27,4.79,16.87,16.87,0,0,0,5.24,2.56,24.74,24.74,0,0,0,6.59.77c1.27,0,2.42-.06,3.46-.16a10,10,0,0,0,2.69-.61,3.85,3.85,0,0,0,1.76-1.36,4.06,4.06,0,0,0,.63-2.38,8.11,8.11,0,0,0-.14-1.46,3.82,3.82,0,0,0-.53-1.36,3.1,3.1,0,0,0-1.09-1A4,4,0,0,0,57.25,75l-.51,0-.79.1-.79.11-.51.05a1.63,1.63,0,0,1-1.6-.87,4.55,4.55,0,0,1-.44-2c0-.24,0-.54,0-.9a3.25,3.25,0,0,1,.25-1,2,2,0,0,1,.7-.85A2.33,2.33,0,0,1,55,69.22a4.3,4.3,0,0,1,1.92.59,6.85,6.85,0,0,1,2.16,1.84,11,11,0,0,1,1.74,3.28,14.58,14.58,0,0,1,.72,4.89,14,14,0,0,1-.77,4.91,9.51,9.51,0,0,1-2,3.35A7.33,7.33,0,0,1,55.86,90a9.84,9.84,0,0,1-3.34.59,8.42,8.42,0,0,1-1.77-.23,11.72,11.72,0,0,1-2.27-.82,16.33,16.33,0,0,1-2.69-1.64,21.44,21.44,0,0,1-3-2.74l-3.43-3.69-6.78-7.57V85.14C32.56,85.38,32.59,85.77,32.63,86.32Z"/></g></g></svg>