<svg xmlns="http://www.w3.org/2000/svg" width="173" height="321.188" viewBox="0 0 173 321.188"><g transform="translate(-203 -654.495)"><g transform="translate(-0.748 -1.052)"><text transform="translate(208.534 971.735)" fill="#fff" font-size="20" font-family="Rubik-Medium, Rubik" font-weight="500"><tspan x="0" y="0" xml:space="preserve">Turn  Your Phone</tspan></text><g transform="translate(353.902 730.493) rotate(90)"><path d="M2894.542,1729.826h15.76c.636,0,1.156.156,1.2.781l-18.169.014C2893.377,1729.989,2893.9,1729.826,2894.542,1729.826Z" transform="translate(-2893.337 -1729.826)" fill="#fff" stroke="#fff" stroke-miterlimit="10" stroke-width="4"/></g><g transform="translate(629.956 622.252) rotate(90)"><g transform="translate(108.241 400.908)"><path d="M2894.542,1965.909h15.76c.636,0,1.156-.156,1.2-.781l-18.169-.014C2893.377,1965.746,2893.9,1965.909,2894.542,1965.909Z" transform="translate(-2893.337 -1965.114)" fill="none" stroke="#fff" stroke-miterlimit="10" stroke-width="1.95"/></g><g transform="translate(139.123 400.908)"><path d="M2938.366,1965.909h15.76c.636,0,1.157-.156,1.2-.781l-18.17-.014C2937.2,1965.746,2937.725,1965.909,2938.366,1965.909Z" transform="translate(-2937.161 -1965.114)" fill="none" stroke="#fff" stroke-miterlimit="10" stroke-width="1.95"/></g></g><ellipse cx="7.673" cy="7.673" rx="7.673" ry="7.673" transform="matrix(0.265, 0.964, -0.964, 0.265, 296.388, 898.91)" fill="none" stroke="#fff" stroke-miterlimit="10" stroke-width="3"/><g transform="translate(350.956 678.081) rotate(90)"><path d="M2792.958,1754.018v83.049c0,10.085,8.168,18.264,18.922,18.278l210.119.292c9.435.014,17.634-8.174,17.634-18.279V1754.31a18.477,18.477,0,0,0-18.451-18.477l-209.722-.291A18.477,18.477,0,0,0,2792.958,1754.018Z" transform="translate(-2792.958 -1735.542)" fill="none" stroke="#fff" stroke-miterlimit="10" stroke-width="3"/></g><g transform="translate(635.657 622.252) rotate(90)"><ellipse cx="1.939" cy="1.939" rx="1.939" ry="1.939" transform="translate(69.9 328.701)" fill="#fff" stroke="#fff" stroke-width="1"/><rect width="20.525" height="1.785" rx="0.892" transform="translate(72.731 339.457) rotate(90)" fill="#fff" stroke="#fff" stroke-width="1.5"/></g><rect width="101.637" height="187.515" rx="0.932" transform="translate(240.118 706.514)" fill="#fff"/><path d="M2751.2,1924.434l-2.35.024a45.869,45.869,0,0,0,35.5,44.29l-.991,4.228,10.665-3.222-8.123-7.625-1.015,4.331A43.525,43.525,0,0,1,2751.2,1924.434Z" transform="translate(2177.723 -2092.8) rotate(90)" fill="#fff" stroke="#fff" stroke-width="1"/><path d="M3265.3,1735.022l2.351-.023a45.87,45.87,0,0,0-35.5-44.29l.991-4.227-10.665,3.222,8.122,7.625,1.015-4.331A43.526,43.526,0,0,1,3265.3,1735.022Z" transform="translate(2062.015 -2321.126) rotate(90)" fill="#fff" stroke="#fff" stroke-width="1"/></g><rect width="173" height="319" transform="translate(203 656)" fill="none"/></g></svg>